<svg width="142" height="142" viewBox="0 0 142 142" fill="none" xmlns="http://www.w3.org/2000/svg">
<circle cx="71" cy="71" r="71" fill="white"/>
<g filter="url(#filter0_d_1055_2110)">
<path d="M39.6266 72.011C39.4171 70.6497 39.8779 67.55 43.3965 66.042C46.9151 64.534 50.0985 66.8798 51.2505 68.2411C50.3221 66.0648 49.4623 61.0701 53.4496 58.5021C56.5912 56.9312 59.7328 57.5595 60.9894 60.387C62.7933 60.365 66.3951 60.9644 66.8756 63.4859C66.5617 60.9183 67.107 55.9945 71.6708 54.7322C71.8803 53.4755 73.0531 51.0879 76.069 51.5906C79.839 52.2189 81.4097 55.3605 81.4097 55.3605C82.2334 54.081 84.5089 51.7734 87.0221 52.7787C90.1637 54.0354 94.3328 56.0573 94.9186 62.9003C97.6555 63.0279 103.058 65.0287 102.773 72.011H39.6266Z" fill="#FF8036"/>
</g>
<path fill-rule="evenodd" clip-rule="evenodd" d="M103.809 71.6283C106.5 71.6283 108.423 74.2315 107.632 76.8035L95.221 117.184C94.7049 118.863 93.154 120.009 91.3975 120.009H50.4982C48.7418 120.009 47.1908 118.863 46.6748 117.184L34.2632 76.8035C33.4727 74.2315 35.396 71.6283 38.0867 71.6283H103.809Z" fill="#1A2232"/>
<path fill-rule="evenodd" clip-rule="evenodd" d="M59.062 29.0887L67.8584 21.1684V40.6145L59.062 48.5349V29.0887ZM52.7788 34.7461L43.9823 42.6665V62.1127L52.7788 54.1923V34.7461ZM84.1091 25.9823L74.1416 34.9571V15.5109L74.4393 15.2429C76.081 13.7647 78.6102 13.8973 80.0884 15.539L84.4052 20.3332C85.8834 21.9749 85.7508 24.5041 84.1091 25.9823ZM26.2204 58.6594C24.5787 60.1376 24.4461 62.6668 25.9243 64.3085L30.2411 69.1028C31.7193 70.7445 34.2485 70.877 35.8902 69.3988L37.6991 67.7701V48.3239L26.2204 58.6594Z" fill="#1A2232"/>
<g filter="url(#filter1_d_1055_2110)">
<path d="M80.239 86.7079C80.3437 87.1896 80.3542 87.6818 80.2704 88.1845C80.2076 88.6662 80.1133 89.106 79.9877 89.5039C79.7363 90.3207 79.4431 91.2318 79.108 92.2371C78.7729 93.2424 78.4378 94.2477 78.1027 95.253C77.7676 96.2584 77.443 97.2113 77.1288 98.1119C76.8147 98.9915 76.5529 99.7246 76.3434 100.311C76.134 100.856 75.9141 101.473 75.6837 102.165C75.4533 102.856 75.1706 103.536 74.8354 104.207C74.5213 104.856 74.1443 105.453 73.7045 105.997C73.2856 106.542 72.7725 106.94 72.1651 107.191C71.5577 107.442 71.0027 107.505 70.5 107.38C69.9974 107.233 69.5471 106.982 69.1492 106.626C68.7512 106.249 68.3847 105.788 68.0496 105.243C67.7354 104.678 67.4527 104.102 67.2014 103.515C66.95 102.929 66.7197 102.364 66.5102 101.819C66.3008 101.253 66.1123 100.772 65.9447 100.374C65.2955 98.9497 64.709 97.4417 64.1854 95.8499C63.6618 94.2582 63.1278 92.7398 62.5832 91.2946C62.4366 90.8758 62.2691 90.3731 62.0806 89.7867C61.8921 89.1793 61.7664 88.5824 61.7036 87.996C61.6617 87.3886 61.735 86.844 61.9235 86.3623C62.112 85.8597 62.5099 85.5141 63.1173 85.3256C63.243 85.2837 63.3686 85.2523 63.4943 85.2314C63.6409 85.1895 63.777 85.1581 63.9027 85.1371C64.0493 85.1371 64.1854 85.1476 64.3111 85.1685C64.4368 85.1895 64.5729 85.2418 64.7195 85.3256C64.8242 85.3675 64.929 85.4199 65.0337 85.4827C65.1384 85.5246 65.2326 85.5874 65.3164 85.6712C65.4002 85.7759 65.4735 85.8806 65.5363 85.9853C65.6201 86.0901 65.7039 86.1948 65.7877 86.2995C65.8505 86.4461 65.9029 86.5822 65.9447 86.7079C66.0076 86.8126 66.0599 86.9174 66.1018 87.0221C66.1437 87.1687 66.1961 87.3048 66.2589 87.4305C66.3217 87.5352 66.3741 87.6399 66.416 87.7446L66.6045 88.2787L71.1284 101.191L75.5894 88.3101L75.8093 87.7761C75.8512 87.6713 75.8931 87.5666 75.935 87.4619C75.9769 87.3362 76.0188 87.2001 76.0607 87.0535C76.1026 86.9488 76.1444 86.844 76.1863 86.7393C76.2492 86.6137 76.3225 86.488 76.4062 86.3623C76.4691 86.2576 76.5319 86.1529 76.5947 86.0482C76.6785 85.9225 76.7623 85.8073 76.8461 85.7026C76.9089 85.6188 76.9822 85.5455 77.066 85.4827C77.1707 85.4199 77.2649 85.3675 77.3487 85.3256C77.5163 85.2418 77.6629 85.1895 77.7885 85.1685C77.9352 85.1476 78.0608 85.1371 78.1655 85.1371C78.2912 85.1581 78.4169 85.1895 78.5425 85.2314C78.6891 85.2523 78.8253 85.2837 78.9509 85.3256C79.3489 85.4303 79.6421 85.6084 79.8306 85.8597C80.04 86.111 80.1762 86.3938 80.239 86.7079Z" fill="#D9D9D9"/>
</g>
<defs>
<filter id="filter0_d_1055_2110" x="35.5841" y="45.5221" width="71.1994" height="28.4889" filterUnits="userSpaceOnUse" color-interpolation-filters="sRGB">
<feFlood flood-opacity="0" result="BackgroundImageFix"/>
<feColorMatrix in="SourceAlpha" type="matrix" values="0 0 0 0 0 0 0 0 0 0 0 0 0 0 0 0 0 0 127 0" result="hardAlpha"/>
<feOffset dy="-2"/>
<feGaussianBlur stdDeviation="2"/>
<feComposite in2="hardAlpha" operator="out"/>
<feColorMatrix type="matrix" values="0 0 0 0 1 0 0 0 0 0.50125 0 0 0 0 0.2125 0 0 0 0.56 0"/>
<feBlend mode="normal" in2="BackgroundImageFix" result="effect1_dropShadow_1055_2110"/>
<feBlend mode="normal" in="SourceGraphic" in2="effect1_dropShadow_1055_2110" result="shape"/>
</filter>
<filter id="filter1_d_1055_2110" x="57.6922" y="80.1371" width="26.6341" height="30.3053" filterUnits="userSpaceOnUse" color-interpolation-filters="sRGB">
<feFlood flood-opacity="0" result="BackgroundImageFix"/>
<feColorMatrix in="SourceAlpha" type="matrix" values="0 0 0 0 0 0 0 0 0 0 0 0 0 0 0 0 0 0 127 0" result="hardAlpha"/>
<feOffset dy="-1"/>
<feGaussianBlur stdDeviation="2"/>
<feComposite in2="hardAlpha" operator="out"/>
<feColorMatrix type="matrix" values="0 0 0 0 0.861719 0 0 0 0 0.861719 0 0 0 0 0.861719 0 0 0 0.6 0"/>
<feBlend mode="normal" in2="BackgroundImageFix" result="effect1_dropShadow_1055_2110"/>
<feBlend mode="normal" in="SourceGraphic" in2="effect1_dropShadow_1055_2110" result="shape"/>
</filter>
</defs>
</svg>
